<svg xmlns="http://www.w3.org/2000/svg" xmlns:xlink="http://www.w3.org/1999/xlink" width="500" zoomAndPan="magnify" viewBox="0 0 375 374.999991" height="500" preserveAspectRatio="xMidYMid meet" version="1.0"><defs><g/><clipPath id="cfa44370e2"><path d="M 50.859375 81.167969 L 323.859375 81.167969 L 323.859375 293 L 50.859375 293 Z M 50.859375 81.167969 " clip-rule="nonzero"/></clipPath></defs><g clip-path="url(#cfa44370e2)"><path fill="#ff3131" d="M 92.957031 81.867188 L 92.5 81.867188 L 91.441406 81.625 L 57.28125 81.527344 L 56.511719 81.527344 C 55.027344 81.703125 53.769531 82.328125 52.734375 83.40625 C 52.128906 84.007812 51.664062 84.703125 51.339844 85.492188 C 51.015625 86.277344 50.855469 87.097656 50.859375 87.953125 C 50.855469 88.507812 50.929688 89.050781 51.074219 89.585938 L 51.265625 90.140625 C 51.488281 90.761719 51.796875 91.335938 52.191406 91.859375 C 52.589844 92.386719 53.058594 92.839844 53.597656 93.21875 C 54.136719 93.597656 54.722656 93.886719 55.351562 94.082031 C 55.976562 94.28125 56.621094 94.378906 57.28125 94.375 L 78.425781 94.375 C 79.695312 94.355469 80.925781 94.554688 82.125 94.964844 C 83.324219 95.378906 84.417969 95.984375 85.402344 96.78125 C 86.949219 98.074219 88.039062 99.679688 88.675781 101.59375 L 96.925781 128.703125 L 121.703125 211.265625 C 121.96875 212.105469 122.257812 212.949219 122.546875 213.671875 L 135.296875 255.457031 C 135.296875 255.457031 135.296875 255.457031 135.296875 255.578125 L 135.296875 255.769531 L 135.585938 256.78125 C 135.832031 257.253906 136.128906 257.695312 136.476562 258.101562 C 136.691406 258.390625 136.941406 258.644531 137.21875 258.875 L 137.390625 259.042969 C 137.5 259.105469 137.59375 259.1875 137.675781 259.28125 L 137.894531 259.28125 L 138.375 259.59375 L 139 259.882812 L 139.386719 260.027344 L 140.660156 260.027344 L 141.765625 260.171875 L 146.914062 260.171875 C 147.089844 260.167969 147.261719 260.1875 147.429688 260.226562 C 147.597656 260.269531 147.761719 260.328125 147.914062 260.410156 C 148.066406 260.492188 148.210938 260.589844 148.339844 260.707031 C 148.46875 260.824219 148.578125 260.953125 148.675781 261.101562 C 148.773438 261.246094 148.847656 261.398438 148.90625 261.5625 C 148.960938 261.726562 148.996094 261.898438 149.011719 262.070312 C 149.027344 262.242188 149.019531 262.417969 148.988281 262.585938 C 148.960938 262.757812 148.910156 262.925781 148.839844 263.082031 C 148.507812 263.878906 148.222656 264.691406 147.988281 265.519531 C 147.753906 266.351562 147.574219 267.191406 147.445312 268.042969 C 147.3125 268.894531 147.238281 269.753906 147.210938 270.613281 C 147.1875 271.476562 147.214844 272.335938 147.296875 273.195312 C 147.378906 274.054688 147.511719 274.902344 147.699219 275.746094 C 147.886719 276.585938 148.125 277.414062 148.410156 278.226562 C 148.699219 279.039062 149.035156 279.832031 149.421875 280.601562 C 149.808594 281.375 150.238281 282.117188 150.714844 282.835938 C 151.195312 283.554688 151.714844 284.242188 152.273438 284.894531 C 152.835938 285.546875 153.4375 286.164062 154.074219 286.746094 C 154.710938 287.324219 155.382812 287.863281 156.085938 288.363281 C 156.792969 288.859375 157.523438 289.3125 158.285156 289.71875 C 159.042969 290.125 159.824219 290.484375 160.628906 290.796875 C 161.433594 291.109375 162.253906 291.367188 163.089844 291.578125 C 163.925781 291.789062 164.773438 291.945312 165.628906 292.050781 C 166.484375 292.15625 167.34375 292.210938 168.207031 292.210938 C 169.066406 292.210938 169.925781 292.15625 170.78125 292.050781 C 171.636719 291.945312 172.484375 291.789062 173.320312 291.578125 C 174.15625 291.367188 174.976562 291.109375 175.78125 290.796875 C 176.585938 290.484375 177.367188 290.125 178.125 289.71875 C 178.886719 289.3125 179.617188 288.859375 180.324219 288.363281 C 181.027344 287.863281 181.699219 287.324219 182.335938 286.746094 C 182.972656 286.164062 183.574219 285.546875 184.136719 284.894531 C 184.695312 284.242188 185.214844 283.554688 185.695312 282.835938 C 186.171875 282.117188 186.601562 281.375 186.988281 280.601562 C 187.375 279.832031 187.710938 279.039062 188 278.226562 C 188.289062 277.414062 188.523438 276.585938 188.710938 275.746094 C 188.898438 274.902344 189.03125 274.054688 189.113281 273.195312 C 189.195312 272.335938 189.222656 271.476562 189.199219 270.613281 C 189.171875 269.753906 189.097656 268.894531 188.964844 268.042969 C 188.835938 267.191406 188.65625 266.351562 188.421875 265.519531 C 188.1875 264.691406 187.902344 263.878906 187.570312 263.082031 C 187.425781 262.761719 187.371094 262.425781 187.398438 262.074219 C 187.429688 261.722656 187.542969 261.402344 187.738281 261.109375 C 187.933594 260.8125 188.183594 260.578125 188.496094 260.410156 C 188.808594 260.238281 189.140625 260.152344 189.496094 260.148438 L 234.289062 260.148438 C 234.644531 260.148438 234.976562 260.234375 235.289062 260.40625 C 235.601562 260.578125 235.851562 260.8125 236.042969 261.109375 C 236.242188 261.402344 236.351562 261.722656 236.382812 262.074219 C 236.414062 262.425781 236.355469 262.761719 236.210938 263.082031 C 235.910156 263.796875 235.648438 264.523438 235.429688 265.265625 C 235.207031 266.011719 235.027344 266.761719 234.890625 267.523438 C 234.75 268.289062 234.65625 269.054688 234.601562 269.828125 C 234.550781 270.601562 234.539062 271.375 234.570312 272.148438 C 234.605469 272.921875 234.679688 273.695312 234.796875 274.460938 C 234.914062 275.226562 235.074219 275.984375 235.277344 276.730469 C 235.476562 277.480469 235.71875 278.214844 236.003906 278.933594 C 236.285156 279.65625 236.609375 280.359375 236.96875 281.046875 C 237.328125 281.730469 237.726562 282.394531 238.160156 283.035156 C 238.597656 283.679688 239.066406 284.292969 239.566406 284.882812 C 240.070312 285.472656 240.601562 286.035156 241.167969 286.566406 C 241.730469 287.097656 242.324219 287.59375 242.945312 288.058594 C 243.5625 288.523438 244.207031 288.953125 244.875 289.347656 C 245.542969 289.742188 246.226562 290.097656 246.933594 290.417969 C 247.640625 290.734375 248.363281 291.011719 249.101562 291.25 C 249.839844 291.488281 250.585938 291.6875 251.347656 291.839844 C 252.105469 291.996094 252.871094 292.109375 253.640625 292.179688 C 254.414062 292.25 255.1875 292.277344 255.960938 292.261719 C 256.738281 292.25 257.507812 292.191406 258.277344 292.089844 C 259.042969 291.988281 259.804688 291.847656 260.558594 291.664062 C 261.3125 291.476562 262.050781 291.253906 262.777344 290.984375 C 263.507812 290.71875 264.214844 290.414062 264.910156 290.066406 C 265.605469 289.722656 266.277344 289.339844 266.929688 288.921875 C 267.578125 288.5 268.207031 288.046875 268.808594 287.558594 C 269.40625 287.070312 269.980469 286.546875 270.523438 285.996094 C 271.066406 285.441406 271.578125 284.863281 272.058594 284.253906 C 272.539062 283.644531 272.980469 283.011719 273.390625 282.351562 C 273.800781 281.695312 274.171875 281.015625 274.503906 280.316406 C 274.839844 279.617188 275.132812 278.902344 275.386719 278.171875 C 275.644531 277.4375 275.855469 276.695312 276.027344 275.941406 C 276.203125 275.183594 276.332031 274.421875 276.417969 273.652344 C 276.507812 272.882812 276.554688 272.109375 276.554688 271.335938 C 276.5625 268.4375 275.984375 265.664062 274.824219 263.011719 C 274.757812 262.851562 274.714844 262.6875 274.691406 262.515625 C 274.667969 262.34375 274.664062 262.171875 274.679688 262.003906 C 274.699219 261.832031 274.734375 261.664062 274.792969 261.5 C 274.851562 261.339844 274.925781 261.1875 275.019531 261.042969 C 275.117188 260.898438 275.226562 260.765625 275.351562 260.648438 C 275.476562 260.53125 275.617188 260.429688 275.765625 260.347656 C 275.917969 260.261719 276.074219 260.199219 276.242188 260.152344 C 276.40625 260.105469 276.574219 260.082031 276.746094 260.074219 L 280.621094 260.074219 C 281.042969 260.074219 281.460938 260.035156 281.875 259.953125 C 282.289062 259.871094 282.6875 259.75 283.078125 259.585938 C 283.46875 259.425781 283.839844 259.226562 284.1875 258.992188 C 284.539062 258.757812 284.863281 258.492188 285.164062 258.195312 C 285.460938 257.894531 285.726562 257.570312 285.960938 257.222656 C 286.195312 256.871094 286.394531 256.5 286.554688 256.109375 C 286.714844 255.722656 286.839844 255.320312 286.921875 254.90625 C 287.003906 254.492188 287.042969 254.074219 287.042969 253.652344 C 287.042969 253.230469 287.003906 252.8125 286.921875 252.398438 C 286.839844 251.984375 286.714844 251.585938 286.554688 251.195312 C 286.394531 250.804688 286.195312 250.433594 285.960938 250.085938 C 285.726562 249.734375 285.460938 249.410156 285.164062 249.109375 C 284.863281 248.8125 284.539062 248.546875 284.1875 248.3125 C 283.839844 248.078125 283.46875 247.878906 283.078125 247.71875 C 282.6875 247.558594 282.289062 247.433594 281.875 247.351562 C 281.460938 247.269531 281.042969 247.230469 280.621094 247.230469 L 160.195312 247.421875 L 154.660156 247.421875 C 154.101562 247.433594 153.546875 247.398438 152.992188 247.324219 C 152.4375 247.246094 151.894531 247.125 151.359375 246.960938 C 150.824219 246.796875 150.304688 246.589844 149.804688 246.34375 C 149.300781 246.097656 148.820312 245.8125 148.367188 245.492188 C 147.910156 245.167969 147.480469 244.8125 147.078125 244.421875 C 146.679688 244.03125 146.3125 243.609375 145.980469 243.164062 C 145.644531 242.714844 145.347656 242.242188 145.089844 241.746094 C 144.832031 241.25 144.613281 240.734375 144.4375 240.207031 L 144.4375 240.0625 L 141.140625 230.078125 C 140.941406 229.410156 141.042969 228.789062 141.453125 228.226562 C 141.871094 227.652344 142.429688 227.363281 143.136719 227.359375 L 281.003906 227.359375 C 288.222656 227.359375 293.035156 222.546875 296.425781 211.433594 L 322.886719 123.195312 C 323.222656 122.082031 323.433594 120.949219 323.515625 119.792969 C 323.597656 118.632812 323.546875 117.480469 323.371094 116.335938 C 323.195312 115.1875 322.894531 114.074219 322.464844 112.996094 C 322.039062 111.917969 321.5 110.898438 320.84375 109.941406 C 320.246094 109.054688 319.554688 108.25 318.777344 107.515625 C 318 106.785156 317.152344 106.148438 316.230469 105.605469 C 315.3125 105.0625 314.34375 104.628906 313.328125 104.300781 C 312.3125 103.972656 311.273438 103.757812 310.210938 103.660156 L 104.503906 103.660156 C 104.039062 103.660156 103.621094 103.523438 103.25 103.246094 C 102.875 102.972656 102.621094 102.613281 102.484375 102.167969 L 97.792969 86.773438 L 97.792969 86.582031 C 97.796875 86.539062 97.796875 86.5 97.792969 86.460938 L 97.503906 85.449219 C 97.242188 84.957031 96.929688 84.5 96.566406 84.078125 C 96.339844 83.796875 96.09375 83.542969 95.820312 83.308594 L 95.601562 83.164062 L 95.3125 82.925781 L 95.097656 82.925781 C 94.933594 82.804688 94.765625 82.691406 94.59375 82.585938 L 93.992188 82.203125 L 93.582031 82.035156 L 93.726562 81.167969 L 93.460938 81.984375 Z M 255.335938 261.015625 C 256.054688 261.015625 256.769531 261.085938 257.472656 261.222656 C 258.179688 261.363281 258.863281 261.574219 259.527344 261.847656 C 260.191406 262.121094 260.820312 262.460938 261.417969 262.859375 C 262.015625 263.257812 262.570312 263.710938 263.078125 264.21875 C 263.585938 264.726562 264.039062 265.28125 264.4375 265.878906 C 264.839844 266.476562 265.175781 267.105469 265.449219 267.769531 C 265.726562 268.433594 265.933594 269.121094 266.074219 269.824219 C 266.214844 270.53125 266.285156 271.242188 266.285156 271.960938 C 266.285156 272.679688 266.214844 273.390625 266.074219 274.09375 C 265.933594 274.800781 265.726562 275.484375 265.449219 276.148438 C 265.175781 276.8125 264.835938 277.441406 264.4375 278.039062 C 264.039062 278.636719 263.585938 279.191406 263.078125 279.699219 C 262.570312 280.207031 262.015625 280.660156 261.417969 281.0625 C 260.820312 281.460938 260.191406 281.796875 259.527344 282.070312 C 258.863281 282.347656 258.179688 282.554688 257.472656 282.695312 C 256.769531 282.835938 256.054688 282.90625 255.335938 282.90625 C 254.617188 282.90625 253.90625 282.835938 253.203125 282.695312 C 252.496094 282.554688 251.8125 282.347656 251.148438 282.074219 C 250.484375 281.796875 249.855469 281.460938 249.257812 281.0625 C 248.660156 280.660156 248.105469 280.207031 247.597656 279.699219 C 247.089844 279.191406 246.636719 278.636719 246.238281 278.039062 C 245.835938 277.441406 245.5 276.8125 245.226562 276.148438 C 244.949219 275.484375 244.742188 274.800781 244.601562 274.09375 C 244.460938 273.390625 244.390625 272.679688 244.390625 271.960938 C 244.390625 271.242188 244.460938 270.527344 244.601562 269.824219 C 244.742188 269.121094 244.949219 268.433594 245.226562 267.769531 C 245.5 267.105469 245.835938 266.476562 246.238281 265.878906 C 246.636719 265.28125 247.089844 264.726562 247.597656 264.21875 C 248.105469 263.710938 248.660156 263.257812 249.257812 262.859375 C 249.855469 262.460938 250.484375 262.121094 251.148438 261.847656 C 251.8125 261.574219 252.496094 261.363281 253.203125 261.222656 C 253.90625 261.085938 254.617188 261.015625 255.335938 261.015625 Z M 167.988281 261.015625 C 168.707031 261.015625 169.417969 261.085938 170.125 261.222656 C 170.828125 261.363281 171.511719 261.570312 172.175781 261.847656 C 172.839844 262.121094 173.472656 262.460938 174.070312 262.859375 C 174.667969 263.257812 175.21875 263.710938 175.726562 264.21875 C 176.238281 264.726562 176.691406 265.28125 177.089844 265.878906 C 177.488281 266.476562 177.824219 267.105469 178.101562 267.769531 C 178.375 268.433594 178.582031 269.121094 178.722656 269.824219 C 178.863281 270.53125 178.933594 271.242188 178.933594 271.960938 C 178.933594 272.679688 178.863281 273.390625 178.722656 274.09375 C 178.582031 274.800781 178.375 275.484375 178.101562 276.148438 C 177.824219 276.8125 177.488281 277.441406 177.089844 278.039062 C 176.691406 278.636719 176.238281 279.191406 175.726562 279.699219 C 175.21875 280.207031 174.667969 280.660156 174.070312 281.0625 C 173.472656 281.460938 172.839844 281.796875 172.175781 282.070312 C 171.511719 282.347656 170.828125 282.554688 170.125 282.695312 C 169.417969 282.835938 168.707031 282.90625 167.988281 282.90625 C 167.269531 282.90625 166.558594 282.835938 165.851562 282.695312 C 165.148438 282.554688 164.464844 282.347656 163.800781 282.070312 C 163.136719 281.796875 162.503906 281.460938 161.90625 281.0625 C 161.308594 280.660156 160.757812 280.207031 160.25 279.699219 C 159.742188 279.191406 159.285156 278.636719 158.886719 278.039062 C 158.488281 277.441406 158.152344 276.8125 157.875 276.148438 C 157.601562 275.484375 157.394531 274.800781 157.253906 274.09375 C 157.113281 273.390625 157.042969 272.679688 157.042969 271.960938 C 157.042969 271.238281 157.113281 270.519531 157.253906 269.8125 C 157.398438 269.105469 157.605469 268.414062 157.886719 267.75 C 158.164062 267.082031 158.503906 266.449219 158.90625 265.847656 C 159.3125 265.25 159.769531 264.695312 160.28125 264.1875 C 160.796875 263.675781 161.355469 263.222656 161.957031 262.824219 C 162.5625 262.425781 163.195312 262.089844 163.867188 261.820312 C 164.535156 261.546875 165.226562 261.34375 165.9375 261.207031 C 166.644531 261.074219 167.363281 261.007812 168.085938 261.015625 Z M 167.988281 261.015625 " fill-opacity="1" fill-rule="nonzero"/></g><g fill="#fafafa" fill-opacity="0.4"><g transform="translate(168.902612, 199.677446)"><g><path d="M 19.296875 -30.8125 C 14.234375 -30.8125 10.101562 -32.472656 6.90625 -35.796875 C 3.707031 -39.128906 2.109375 -43.675781 2.109375 -49.4375 C 2.109375 -53.207031 2.84375 -56.5 4.3125 -59.3125 C 5.789062 -62.132812 7.820312 -64.296875 10.40625 -65.796875 C 13 -67.296875 15.960938 -68.046875 19.296875 -68.046875 C 24.410156 -68.046875 28.566406 -66.363281 31.765625 -63 C 34.960938 -59.644531 36.5625 -55.125 36.5625 -49.4375 C 36.5625 -43.675781 34.960938 -39.128906 31.765625 -35.796875 C 28.566406 -32.472656 24.410156 -30.8125 19.296875 -30.8125 Z M 59.03125 -67.1875 L 72.859375 -67.1875 L 26.96875 0 L 13.15625 0 Z M 19.296875 -39.921875 C 21.023438 -39.921875 22.398438 -40.6875 23.421875 -42.21875 C 24.441406 -43.757812 24.953125 -46.164062 24.953125 -49.4375 C 24.953125 -52.695312 24.441406 -55.09375 23.421875 -56.625 C 22.398438 -58.164062 21.023438 -58.9375 19.296875 -58.9375 C 17.628906 -58.9375 16.265625 -58.148438 15.203125 -56.578125 C 14.148438 -55.015625 13.625 -52.632812 13.625 -49.4375 C 13.625 -46.226562 14.148438 -43.835938 15.203125 -42.265625 C 16.265625 -40.703125 17.628906 -39.921875 19.296875 -39.921875 Z M 66.703125 0.859375 C 61.585938 0.859375 57.445312 -0.800781 54.28125 -4.125 C 51.113281 -7.457031 49.53125 -12 49.53125 -17.75 C 49.53125 -23.445312 51.128906 -27.972656 54.328125 -31.328125 C 57.523438 -34.691406 61.648438 -36.375 66.703125 -36.375 C 71.828125 -36.375 75.988281 -34.691406 79.1875 -31.328125 C 82.382812 -27.972656 83.984375 -23.445312 83.984375 -17.75 C 83.984375 -12 82.382812 -7.457031 79.1875 -4.125 C 75.988281 -0.800781 71.828125 0.859375 66.703125 0.859375 Z M 66.703125 -8.25 C 68.429688 -8.25 69.804688 -9.015625 70.828125 -10.546875 C 71.859375 -12.085938 72.375 -14.488281 72.375 -17.75 C 72.375 -21.019531 71.859375 -23.421875 70.828125 -24.953125 C 69.804688 -26.492188 68.429688 -27.265625 66.703125 -27.265625 C 64.984375 -27.265625 63.609375 -26.492188 62.578125 -24.953125 C 61.554688 -23.421875 61.046875 -21.019531 61.046875 -17.75 C 61.046875 -14.488281 61.554688 -12.085938 62.578125 -10.546875 C 63.609375 -9.015625 64.984375 -8.25 66.703125 -8.25 Z M 66.703125 -8.25 "/></g></g></g><g fill="#fafafa" fill-opacity="1"><g transform="translate(168.902612, 199.677446)"><g><path d="M 19.296875 -30.8125 C 14.234375 -30.8125 10.101562 -32.472656 6.90625 -35.796875 C 3.707031 -39.128906 2.109375 -43.675781 2.109375 -49.4375 C 2.109375 -53.207031 2.84375 -56.5 4.3125 -59.3125 C 5.789062 -62.132812 7.820312 -64.296875 10.40625 -65.796875 C 13 -67.296875 15.960938 -68.046875 19.296875 -68.046875 C 24.410156 -68.046875 28.566406 -66.363281 31.765625 -63 C 34.960938 -59.644531 36.5625 -55.125 36.5625 -49.4375 C 36.5625 -43.675781 34.960938 -39.128906 31.765625 -35.796875 C 28.566406 -32.472656 24.410156 -30.8125 19.296875 -30.8125 Z M 59.03125 -67.1875 L 72.859375 -67.1875 L 26.96875 0 L 13.15625 0 Z M 19.296875 -39.921875 C 21.023438 -39.921875 22.398438 -40.6875 23.421875 -42.21875 C 24.441406 -43.757812 24.953125 -46.164062 24.953125 -49.4375 C 24.953125 -52.695312 24.441406 -55.09375 23.421875 -56.625 C 22.398438 -58.164062 21.023438 -58.9375 19.296875 -58.9375 C 17.628906 -58.9375 16.265625 -58.148438 15.203125 -56.578125 C 14.148438 -55.015625 13.625 -52.632812 13.625 -49.4375 C 13.625 -46.226562 14.148438 -43.835938 15.203125 -42.265625 C 16.265625 -40.703125 17.628906 -39.921875 19.296875 -39.921875 Z M 66.703125 0.859375 C 61.585938 0.859375 57.445312 -0.800781 54.28125 -4.125 C 51.113281 -7.457031 49.53125 -12 49.53125 -17.75 C 49.53125 -23.445312 51.128906 -27.972656 54.328125 -31.328125 C 57.523438 -34.691406 61.648438 -36.375 66.703125 -36.375 C 71.828125 -36.375 75.988281 -34.691406 79.1875 -31.328125 C 82.382812 -27.972656 83.984375 -23.445312 83.984375 -17.75 C 83.984375 -12 82.382812 -7.457031 79.1875 -4.125 C 75.988281 -0.800781 71.828125 0.859375 66.703125 0.859375 Z M 66.703125 -8.25 C 68.429688 -8.25 69.804688 -9.015625 70.828125 -10.546875 C 71.859375 -12.085938 72.375 -14.488281 72.375 -17.75 C 72.375 -21.019531 71.859375 -23.421875 70.828125 -24.953125 C 69.804688 -26.492188 68.429688 -27.265625 66.703125 -27.265625 C 64.984375 -27.265625 63.609375 -26.492188 62.578125 -24.953125 C 61.554688 -23.421875 61.046875 -21.019531 61.046875 -17.75 C 61.046875 -14.488281 61.554688 -12.085938 62.578125 -10.546875 C 63.609375 -9.015625 64.984375 -8.25 66.703125 -8.25 Z M 66.703125 -8.25 "/></g></g></g></svg>